<?xml version="1.0" encoding="UTF-8" standalone="no"?>
<!-- Created with Inkscape (http://www.inkscape.org/) -->

<svg
   xmlns:dc="http://purl.org/dc/elements/1.1/"
   xmlns:cc="http://creativecommons.org/ns#"
   xmlns:rdf="http://www.w3.org/1999/02/22-rdf-syntax-ns#"
   xmlns:svg="http://www.w3.org/2000/svg"
   xmlns="http://www.w3.org/2000/svg"
   xmlns:sodipodi="http://sodipodi.sourceforge.net/DTD/sodipodi-0.dtd"
   xmlns:inkscape="http://www.inkscape.org/namespaces/inkscape"
   width="406.0625"
   height="270.6875"
   id="svg9081"
   version="1.1"
   inkscape:version="0.48.5 r10040"
   sodipodi:docname="e3z-retro.svg"
   inkscape:export-filename="D:\Google Drive\NBCC\COMM1022 - Formal Technical Report\Images\e3z-retro.png"
   inkscape:export-xdpi="299.95999"
   inkscape:export-ydpi="299.95999">
  <defs
     id="defs9083">
    <clipPath
       clipPathUnits="userSpaceOnUse"
       id="clipPath8428">
      <path
         inkscape:connector-curvature="0"
         d="m 138.045,588.23 -36.445,0 0,-22.218 36.445,0 0,22.218 z"
         id="path8430" />
    </clipPath>
    <clipPath
       clipPathUnits="userSpaceOnUse"
       id="clipPath8396">
      <path
         inkscape:connector-curvature="0"
         d="m 138.045,588.23 -36.445,0 0,-22.218 36.445,0 0,22.218 z"
         id="path8398" />
    </clipPath>
    <clipPath
       clipPathUnits="userSpaceOnUse"
       id="clipPath8364">
      <path
         inkscape:connector-curvature="0"
         d="m 138.045,588.23 -36.445,0 0,-22.218 36.445,0 0,22.218 z"
         id="path8366" />
    </clipPath>
  </defs>
  <sodipodi:namedview
     id="base"
     pagecolor="#ffffff"
     bordercolor="#666666"
     borderopacity="1.0"
     inkscape:pageopacity="0.0"
     inkscape:pageshadow="2"
     inkscape:zoom="0.49497475"
     inkscape:cx="139.46258"
     inkscape:cy="452.65517"
     inkscape:document-units="px"
     inkscape:current-layer="layer1"
     showgrid="false"
     fit-margin-top="0"
     fit-margin-left="0"
     fit-margin-right="0"
     fit-margin-bottom="0"
     inkscape:window-width="1920"
     inkscape:window-height="1017"
     inkscape:window-x="-8"
     inkscape:window-y="-8"
     inkscape:window-maximized="1" />
  <metadata
     id="metadata9086">
    <rdf:RDF>
      <cc:Work
         rdf:about="">
        <dc:format>image/svg+xml</dc:format>
        <dc:type
           rdf:resource="http://purl.org/dc/dcmitype/StillImage" />
        <dc:title></dc:title>
      </cc:Work>
    </rdf:RDF>
  </metadata>
  <g
     inkscape:label="Layer 1"
     inkscape:groupmode="layer"
     id="layer1"
     transform="translate(-114.15625,-287.6875)">
    <g
       id="g8348"
       transform="matrix(9.0743951,0,0,-9.0743951,204.48306,472.93109)">
      <path
         inkscape:connector-curvature="0"
         d="M 0,0 -0.001,-4.865"
         style="fill:none;stroke:#231f20;stroke-width:0.89999998;stroke-linecap:butt;stroke-linejoin:miter;stroke-miterlimit:4;stroke-opacity:1;stroke-dasharray:none"
         id="path8350" />
    </g>
    <g
       id="g8352"
       transform="matrix(9.0743951,0,0,-9.0743951,186.46138,517.06894)">
      <path
         inkscape:connector-curvature="0"
         d="M 0,0 0.002,4.864"
         style="fill:none;stroke:#231f20;stroke-width:0.89999998;stroke-linecap:butt;stroke-linejoin:miter;stroke-miterlimit:4;stroke-opacity:1;stroke-dasharray:none"
         id="path8354" />
    </g>
    <g
       id="g8356"
       transform="matrix(9.0743951,0,0,-9.0743951,186.44323,517.09624)">
      <path
         inkscape:connector-curvature="0"
         d="M 0,0 C 0.328,-0.313 0.606,-0.292 0.985,0.018 1.415,0.367 1.76,0.321 1.985,0 l 0.003,4.866 -1.986,0 L 0,0"
         style="fill:#ffffff;fill-opacity:1;fill-rule:nonzero;stroke:none"
         id="path8358" />
    </g>
    <g
       transform="matrix(9.0743951,0,0,-9.0743951,-775.58792,5657.6143)"
       id="g8360">
      <g
         id="g8362"
         clip-path="url(#clipPath8364)">
        <g
           id="g8368"
           transform="translate(106.01601,566.48599)">
          <path
             inkscape:connector-curvature="0"
             d="M 0,0 C 0.328,-0.313 0.606,-0.292 0.985,0.018 1.415,0.367 1.76,0.321 1.985,0 l 0.003,4.866 -1.986,0 L 0,0 z"
             style="fill:none;stroke:#231f20;stroke-width:0.30000001;stroke-linecap:butt;stroke-linejoin:miter;stroke-miterlimit:4;stroke-opacity:1;stroke-dasharray:none"
             id="path8370" />
        </g>
      </g>
    </g>
    <path
       inkscape:connector-curvature="0"
       d="m 216.53385,429.9366 66.0253,0 0,-50.32659 -66.0253,0 0,50.32659 z"
       style="fill:#ffffff;fill-opacity:1;fill-rule:nonzero;stroke:none"
       id="path8372" />
    <path
       inkscape:connector-curvature="0"
       d="m 282.55915,429.9366 -66.0253,0 0,-50.32659 66.0253,0 0,50.32659 z"
       style="fill:none;stroke:#231f20;stroke-width:4.08347797;stroke-linecap:butt;stroke-linejoin:miter;stroke-miterlimit:4;stroke-opacity:1;stroke-dasharray:none"
       id="path8374" />
    <g
       id="g8376"
       transform="matrix(9.0743951,0,0,-9.0743951,295.70802,422.06003)">
      <path
         inkscape:connector-curvature="0"
         d="M 0,0 10.085,0"
         style="fill:none;stroke:#ec008c;stroke-width:0.89999998;stroke-linecap:butt;stroke-linejoin:miter;stroke-miterlimit:4;stroke-opacity:1;stroke-dasharray:none"
         id="path8378" />
    </g>
    <g
       id="g8380"
       transform="matrix(9.0743951,0,0,-9.0743951,383.04907,436.37035)">
      <path
         inkscape:connector-curvature="0"
         d="M 0,0 2.72,1.57 0,3.142 0,0"
         style="fill:#ec008c;fill-opacity:1;fill-rule:nonzero;stroke:none"
         id="path8382" />
    </g>
    <g
       id="g8384"
       transform="matrix(9.0743951,0,0,-9.0743951,407.73128,383.4847)">
      <path
         inkscape:connector-curvature="0"
         d="M 0,0 -10.083,0"
         style="fill:none;stroke:#ec008c;stroke-width:0.89999998;stroke-linecap:butt;stroke-linejoin:miter;stroke-miterlimit:4;stroke-opacity:1;stroke-dasharray:none"
         id="path8386" />
    </g>
    <g
       id="g8388"
       transform="matrix(9.0743951,0,0,-9.0743951,320.39938,397.77702)">
      <path
         inkscape:connector-curvature="0"
         d="M 0,0 -2.721,1.571 0,3.141 0,0"
         style="fill:#ec008c;fill-opacity:1;fill-rule:nonzero;stroke:none"
         id="path8390" />
    </g>
    <g
       transform="matrix(9.0743951,0,0,-9.0743951,-775.58792,5657.6143)"
       id="g8392">
      <g
         id="g8394"
         clip-path="url(#clipPath8396)">
        <g
           id="g8400"
           transform="translate(134.19,586.245)">
          <path
             inkscape:connector-curvature="0"
             d="M 3.63,0 0,0 l 0,-14.22 3.63,0 0,14.22 z"
             style="fill:none;stroke:#231f20;stroke-width:0.44999999;stroke-linecap:butt;stroke-linejoin:miter;stroke-miterlimit:4;stroke-opacity:1;stroke-dasharray:none"
             id="path8402" />
        </g>
        <g
           id="g8404"
           transform="translate(134.19,586.245)">
          <path
             inkscape:connector-curvature="0"
             d="M 0,0 z"
             style="fill:none;stroke:#231f20;stroke-width:0.44999999;stroke-linecap:butt;stroke-linejoin:miter;stroke-miterlimit:4;stroke-opacity:1;stroke-dasharray:none"
             id="path8406" />
        </g>
      </g>
    </g>
    <g
       id="g8408"
       transform="matrix(9.0743951,0,0,-9.0743951,458.18507,466.83317)">
      <path
         inkscape:connector-curvature="0"
         d="M 0,0 0,14.22"
         style="fill:none;stroke:#231f20;stroke-width:0.44999999;stroke-linecap:butt;stroke-linejoin:miter;stroke-miterlimit:4;stroke-opacity:1;stroke-dasharray:none"
         id="path8410" />
    </g>
    <g
       id="g8412"
       transform="matrix(9.0743951,0,0,-9.0743951,441.92368,467.05081)">
      <path
         inkscape:connector-curvature="0"
         d="M 0,0 1.792,1.793 0,3.586 0,3.526 1.792,5.319 0,7.111 0,7.073 1.792,8.865 0,10.658 1.792,12.451 0,14.243"
         style="fill:none;stroke:#231f20;stroke-width:0.44999999;stroke-linecap:butt;stroke-linejoin:bevel;stroke-miterlimit:1;stroke-opacity:1;stroke-dasharray:none"
         id="path8414" />
    </g>
    <g
       id="g8416"
       transform="matrix(9.0743951,0,0,-9.0743951,164.21996,327.6228)">
      <path
         inkscape:connector-curvature="0"
         d="m 0,0 1.247,0 0,-0.375 L 0,-0.375 0,0 z"
         style="fill:none;stroke:#231f20;stroke-width:0.89999998;stroke-linecap:butt;stroke-linejoin:miter;stroke-miterlimit:4;stroke-opacity:1;stroke-dasharray:none"
         id="path8418" />
    </g>
    <g
       id="g8420"
       transform="matrix(9.0743951,0,0,-9.0743951,184.39227,327.6228)">
      <path
         inkscape:connector-curvature="0"
         d="m 0,0 1.247,0 0,-0.375 L 0,-0.375 0,0 z"
         style="fill:none;stroke:#231f20;stroke-width:0.89999998;stroke-linecap:butt;stroke-linejoin:miter;stroke-miterlimit:4;stroke-opacity:1;stroke-dasharray:none"
         id="path8422" />
    </g>
    <g
       transform="matrix(9.0743951,0,0,-9.0743951,-775.58792,5657.6143)"
       id="g8424">
      <g
         id="g8426"
         clip-path="url(#clipPath8428)">
        <g
           id="g8432"
           transform="translate(110.483,571.353)">
          <path
             inkscape:connector-curvature="0"
             d="m 0,0 c 0.822,0 1.488,0.666 1.488,1.488 l 0,12.403 c 0,0.822 -0.666,1.488 -1.488,1.488 l -1.085,0 c 0,0.578 -0.531,1.047 -1.185,1.047 -0.555,0 -0.999,-0.344 -1.128,-0.799 l -4.245,0 0,-0.249 -0.79,0 L -8.433,0 0,0 z"
             style="fill:none;stroke:#231f20;stroke-width:0.89999998;stroke-linecap:butt;stroke-linejoin:miter;stroke-miterlimit:4;stroke-opacity:1;stroke-dasharray:none"
             id="path8434" />
        </g>
      </g>
    </g>
    <g
       id="g8436"
       transform="matrix(9.0743951,0,0,-9.0743951,226.97848,472.93109)">
      <path
         inkscape:connector-curvature="0"
         d="m 0,0 c 0.822,0 1.488,0.666 1.488,1.488 l 0,12.403 c 0,0.822 -0.666,1.488 -1.488,1.488 L -8.433,15.378 -8.433,0 0,0"
         style="fill:#ffffff;fill-opacity:1;fill-rule:nonzero;stroke:none"
         id="path8438" />
    </g>
    <g
       id="g8440"
       transform="matrix(9.0743951,0,0,-9.0743951,226.97848,472.93109)">
      <path
         inkscape:connector-curvature="0"
         d="m 0,0 c 0.822,0 1.488,0.666 1.488,1.488 l 0,12.403 c 0,0.822 -0.666,1.488 -1.488,1.488 L -8.433,15.378 -8.433,0 0,0 z"
         style="fill:none;stroke:#231f20;stroke-width:0.30000001;stroke-linecap:butt;stroke-linejoin:miter;stroke-miterlimit:4;stroke-opacity:1;stroke-dasharray:none"
         id="path8442" />
    </g>
    <g
       id="g8444"
       transform="matrix(9.0743951,0,0,-9.0743951,226.97848,352.85862)">
      <path
         inkscape:connector-curvature="0"
         d="m 0,0 c 0.342,0 0.62,0.278 0.62,0.62 l 0,0.124 c 0,0.342 -0.278,0.62 -0.62,0.62 -0.343,0 -0.62,-0.278 -0.62,-0.62 l 0,-0.124 C -0.62,0.278 -0.343,0 0,0 z"
         style="fill:none;stroke:#231f20;stroke-width:0.30000001;stroke-linecap:butt;stroke-linejoin:miter;stroke-miterlimit:4;stroke-opacity:1;stroke-dasharray:none"
         id="path8446" />
    </g>
    <g
       id="g8448"
       transform="matrix(9.0743951,0,0,-9.0743951,226.97848,465.92565)">
      <path
         inkscape:connector-curvature="0"
         d="m 0,0 c 0.342,0 0.62,0.277 0.62,0.619 l 0,0.125 c 0,0.342 -0.278,0.619 -0.62,0.619 -0.343,0 -0.62,-0.277 -0.62,-0.619 l 0,-0.125 C -0.62,0.277 -0.343,0 0,0 z"
         style="fill:none;stroke:#231f20;stroke-width:0.30000001;stroke-linecap:butt;stroke-linejoin:miter;stroke-miterlimit:4;stroke-opacity:1;stroke-dasharray:none"
         id="path8450" />
    </g>
    <g
       id="g8452"
       transform="matrix(9.0743951,0,0,-9.0743951,217.13276,333.37604)">
      <path
         inkscape:connector-curvature="0"
         d="M 0,0 C 0,0.579 -0.531,1.048 -1.185,1.048 -1.839,1.048 -2.37,0.579 -2.37,0 L 0,0 z"
         style="fill:none;stroke:#231f20;stroke-width:0.30000001;stroke-linecap:butt;stroke-linejoin:miter;stroke-miterlimit:4;stroke-opacity:1;stroke-dasharray:none"
         id="path8454" />
    </g>
    <g
       id="g8456"
       transform="matrix(9.0743951,0,0,-9.0743951,175.52666,327.61372)">
      <path
         inkscape:connector-curvature="0"
         d="m 0,0 -1.247,0 0,-0.375 1.247,0 L 0,0 z"
         style="fill:none;stroke:#231f20;stroke-width:0.30000001;stroke-linecap:butt;stroke-linejoin:miter;stroke-miterlimit:4;stroke-opacity:1;stroke-dasharray:none"
         id="path8458" />
    </g>
    <g
       id="g8460"
       transform="matrix(9.0743951,0,0,-9.0743951,195.69904,327.61372)">
      <path
         inkscape:connector-curvature="0"
         d="m 0,0 -1.247,0 0,-0.375 1.247,0 L 0,0 z"
         style="fill:none;stroke:#231f20;stroke-width:0.30000001;stroke-linecap:butt;stroke-linejoin:miter;stroke-miterlimit:4;stroke-opacity:1;stroke-dasharray:none"
         id="path8462" />
    </g>
    <path
       inkscape:connector-curvature="0"
       d="m 157.63195,333.38504 44.41009,0 0,-2.25953 -44.41009,0 0,2.25953 z"
       style="fill:#ffffff;fill-opacity:1;fill-rule:nonzero;stroke:none"
       id="path8464" />
    <g
       id="g8466"
       transform="matrix(9.0743951,0,0,-9.0743951,202.0329,333.38504)">
      <path
         inkscape:connector-curvature="0"
         d="M -4.894,0 0,0 l 0,0.249 -4.894,0 0,-0.249 z"
         style="fill:none;stroke:#231f20;stroke-width:0.30000001;stroke-linecap:butt;stroke-linejoin:miter;stroke-miterlimit:4;stroke-opacity:1;stroke-dasharray:none"
         id="path8468" />
    </g>
    <g
       id="g8470"
       transform="matrix(9.0743951,0,0,-9.0743951,202.0329,333.38504)">
      <path
         inkscape:connector-curvature="0"
         d="M 0,0 z"
         style="fill:none;stroke:#231f20;stroke-width:0.30000001;stroke-linecap:butt;stroke-linejoin:miter;stroke-miterlimit:4;stroke-opacity:1;stroke-dasharray:none"
         id="path8472" />
    </g>
  </g>
</svg>
